<?xml version="1.0" encoding="UTF-8"?>
<svg width="300px" height="300px" viewBox="0 0 300 300" version="1.1" xmlns="http://www.w3.org/2000/svg" xmlns:xlink="http://www.w3.org/1999/xlink">
    <title>ICNAMING2_300</title>
    <defs>
        <linearGradient x1="50%" y1="0%" x2="50%" y2="100%" id="linearGradient-1">
            <stop stop-color="#0093FF" stop-opacity="0" offset="0%"></stop>
            <stop stop-color="#0093FF" offset="20%"></stop>
            <stop stop-color="#0093FF" offset="80%"></stop>
            <stop stop-color="#0093FF" stop-opacity="0" offset="100%"></stop>
        </linearGradient>
        <linearGradient x1="30.4323957%" y1="91.7810726%" x2="50%" y2="36.9777053%" id="linearGradient-2">
            <stop stop-color="#00CF68" offset="0%"></stop>
            <stop stop-color="#00CF68" offset="33.9980332%"></stop>
            <stop stop-color="#00CF68" stop-opacity="0" offset="100%"></stop>
        </linearGradient>
        <linearGradient x1="64.0716207%" y1="8.89168397%" x2="40.1086678%" y2="52.1519086%" id="linearGradient-3">
            <stop stop-color="#5500FF" offset="0%"></stop>
            <stop stop-color="#5500FF" offset="33.4467837%"></stop>
            <stop stop-color="#5500FF" stop-opacity="0" offset="100%"></stop>
        </linearGradient>
    </defs>
    <g id="页面-1" stroke="none" stroke-width="1" fill="none" fill-rule="evenodd">
        <g id="Deland-Labs" transform="translate(-1255.000000, -4952.000000)">
            <g id="编组-7备份-7" transform="translate(1005.000000, 4802.000000)">
                <g id="ICNAMING2_300" transform="translate(250.000000, 150.000000)">
                    <rect id="矩形" x="0" y="0" width="300" height="299.707317"></rect>
                    <g id="编组-15备份" fill-rule="nonzero">
                        <path d="M207.857143,22.5 L207.857143,191.604533 C207.857143,205.83518 190.776406,212.980089 180.644248,203.187944 L180.339365,202.886018 L122.141786,143.837939 L122.142857,276.428571 L90,276.428571 L90,104.637638 C90,90.4069912 107.080737,83.2620821 117.212895,93.0542272 L117.517778,93.3561533 L175.713214,152.401867 L175.714286,22.5 L207.857143,22.5 Z" id="路径" fill="url(#linearGradient-1)"></path>
                        <path d="M150,0 L150,32.1428571 C119.067824,32.1428571 90.0574176,44.0891797 68.2293882,65.1241653 C45.3109293,87.2099638 32.1428571,117.536331 32.1428571,150 C32.1428571,191.780601 54.3674982,229.510267 88.7881243,250.545798 L90,251.275439 L90,104.637638 L122.142857,104.637638 L122.142857,276.428571 C122.142857,287.502141 111.206354,295.257998 100.75598,291.595536 C41.0176322,270.659502 0,214.134606 0,150 C0,108.71434 16.7830192,70.0626676 45.9252905,41.9791769 C73.4074092,15.495523 109.925984,0.305712543 148.820653,0.00456469856 L150,0 Z" id="路径" fill="url(#linearGradient-2)"></path>
                        <path d="M175.714286,22.5 C175.714286,11.5598411 186.407533,3.81703818 196.801293,7.23124815 C257.834741,27.2799125 300,84.6824332 300,150 C300,190.135534 284.143235,227.803557 256.418339,255.712528 C228.731095,283.583597 191.242692,299.676101 151.213768,299.995164 L150,300 L150,267.857143 C181.834453,267.857143 211.621909,255.198361 233.61483,233.059421 C255.416869,211.11263 267.857143,181.560543 267.857143,150 C267.857143,106.873453 244.456909,68.1168286 208.564437,47.4882868 L207.857143,47.0871429 L207.857143,191.604533 L175.714286,191.604533 L175.714286,22.5 Z" id="路径" fill="url(#linearGradient-3)"></path>
                    </g>
                </g>
            </g>
        </g>
    </g>
</svg>